<svg width="48" height="48" viewBox="0 0 48 48" fill="none" xmlns="http://www.w3.org/2000/svg">
<rect x="0.6125" y="0.6125" width="46.775" height="46.775" rx="23.3875" fill="white" fill-opacity="0.12"/>
<g clip-path="url(#clip0_3338_216800)">
<path d="M16.2137 13.8155C16.9417 13.5558 17.7286 13.5081 18.4827 13.6779C19.2368 13.8477 19.9272 14.228 20.4737 14.7748C21.0202 15.3215 21.4002 16.0121 21.5697 16.7663C21.7392 17.5205 21.6911 18.3073 21.431 19.0352L34.0835 31.6877L31.6078 34.1622L18.9554 21.5109C18.2273 21.7706 17.4405 21.8183 16.6864 21.6485C15.9322 21.4787 15.2418 21.0984 14.6953 20.5516C14.1489 20.0049 13.7688 19.3143 13.5993 18.5601C13.4299 17.8059 13.478 17.0191 13.738 16.2912L16.3467 18.901C16.5081 19.0682 16.7012 19.2015 16.9147 19.2932C17.1282 19.3849 17.3579 19.4332 17.5902 19.4352C17.8226 19.4372 18.053 19.393 18.2681 19.305C18.4832 19.217 18.6786 19.087 18.8429 18.9227C19.0072 18.7584 19.1371 18.563 19.2251 18.3479C19.3131 18.1329 19.3574 17.9024 19.3554 17.6701C19.3534 17.4377 19.3051 17.2081 19.2134 16.9946C19.1216 16.7811 18.9883 16.588 18.8212 16.4265L16.2125 13.8144L16.2137 13.8155ZM28.3085 16.0135L32.0208 13.9509L33.6705 15.6005L31.6078 19.3129L29.5452 19.7259L27.0718 22.2004L25.421 20.5507L27.8955 18.0762L28.3085 16.0135ZM20.059 25.0879L22.5335 27.5635L16.7585 33.3385C16.4401 33.654 16.0127 33.8352 15.5645 33.8449C15.1164 33.8545 14.6816 33.6918 14.3499 33.3903C14.0182 33.0888 13.8148 32.6715 13.7817 32.2245C13.7486 31.7774 13.8883 31.3348 14.172 30.9877L14.2852 30.8629L20.059 25.0879Z" fill="white"/>
</g>
<rect x="0.6125" y="0.6125" width="46.775" height="46.775" rx="23.3875" stroke="#9F9367" stroke-width="1.225" stroke-linecap="square"/>
<defs>
<clipPath id="clip0_3338_216800">
<rect width="28" height="28" fill="white" transform="translate(10 10)"/>
</clipPath>
</defs>
</svg>
