<svg width="20" height="20" viewBox="0 0 20 20" fill="none" xmlns="http://www.w3.org/2000/svg">
<g id="arrow_back_24px">
<path id="Vector" d="M9.16667 15.8333C10.6458 15.833 12.0823 15.3379 13.2475 14.4267L16.9108 18.09L18.0892 16.9117L14.4258 13.2483C15.3375 12.0831 15.833 10.6462 15.8333 9.16667C15.8333 5.49083 12.8425 2.5 9.16667 2.5C5.49083 2.5 2.5 5.49083 2.5 9.16667C2.5 12.8425 5.49083 15.8333 9.16667 15.8333ZM9.16667 4.16667C11.9242 4.16667 14.1667 6.40917 14.1667 9.16667C14.1667 11.9242 11.9242 14.1667 9.16667 14.1667C6.40917 14.1667 4.16667 11.9242 4.16667 9.16667C4.16667 6.40917 6.40917 4.16667 9.16667 4.16667Z" fill="#EDEDED"/>
</g>
</svg>
