<svg width="450" height="71" viewBox="0 0 450 71" fill="none" xmlns="http://www.w3.org/2000/svg">
<path opacity="0.4" d="M37.1805 70.152C31.9965 70.152 27.1645 69.32 22.6845 67.656C18.2685 65.928 14.4285 63.496 11.1645 60.36C7.90051 57.224 5.34051 53.544 3.48451 49.32C1.69251 45.096 0.796506 40.456 0.796506 35.4C0.796506 30.344 1.69251 25.704 3.48451 21.48C5.34051 17.256 7.90051 13.576 11.1645 10.44C14.4925 7.304 18.3645 4.904 22.7805 3.23999C27.1965 1.512 32.0285 0.647999 37.2765 0.647999C43.1005 0.647999 48.3485 1.672 53.0205 3.72C57.7565 5.704 61.7245 8.648 64.9245 12.552L54.9405 21.768C52.6365 19.144 50.0765 17.192 47.2605 15.912C44.4445 14.568 41.3725 13.896 38.0445 13.896C34.9085 13.896 32.0285 14.408 29.4045 15.432C26.7805 16.456 24.5085 17.928 22.5885 19.848C20.6685 21.768 19.1645 24.04 18.0765 26.664C17.0525 29.288 16.5405 32.2 16.5405 35.4C16.5405 38.6 17.0525 41.512 18.0765 44.136C19.1645 46.76 20.6685 49.032 22.5885 50.952C24.5085 52.872 26.7805 54.344 29.4045 55.368C32.0285 56.392 34.9085 56.904 38.0445 56.904C41.3725 56.904 44.4445 56.264 47.2605 54.984C50.0765 53.64 52.6365 51.624 54.9405 48.936L64.9245 58.152C61.7245 62.056 57.7565 65.032 53.0205 67.08C48.3485 69.128 43.0685 70.152 37.1805 70.152ZM77.3468 69V1.8H106.435C112.451 1.8 117.635 2.792 121.987 4.776C126.339 6.696 129.699 9.48 132.067 13.128C134.435 16.776 135.619 21.128 135.619 26.184C135.619 31.176 134.435 35.496 132.067 39.144C129.699 42.728 126.339 45.48 121.987 47.4C117.635 49.32 112.451 50.28 106.435 50.28H85.9868L92.8988 43.464V69H77.3468ZM120.067 69L103.267 44.616H119.875L136.867 69H120.067ZM92.8988 45.192L85.9868 37.896H105.571C110.371 37.896 113.955 36.872 116.323 34.824C118.691 32.712 119.875 29.832 119.875 26.184C119.875 22.472 118.691 19.592 116.323 17.544C113.955 15.496 110.371 14.472 105.571 14.472H85.9868L92.8988 7.08V45.192ZM179.717 70.152C170.181 70.152 162.725 67.496 157.349 62.184C151.973 56.872 149.285 49.288 149.285 39.432V1.8H164.837V38.856C164.837 45.256 166.149 49.864 168.773 52.68C171.397 55.496 175.077 56.904 179.813 56.904C184.549 56.904 188.229 55.496 190.853 52.68C193.477 49.864 194.789 45.256 194.789 38.856V1.8H210.149V39.432C210.149 49.288 207.461 56.872 202.085 62.184C196.709 67.496 189.253 70.152 179.717 70.152ZM227.437 69V1.8H242.989V69H227.437ZM282.937 70.152C277.561 70.152 272.409 69.448 267.481 68.04C262.553 66.568 258.585 64.68 255.577 62.376L260.857 50.664C263.737 52.712 267.129 54.408 271.033 55.752C275.001 57.032 279.001 57.672 283.033 57.672C286.105 57.672 288.569 57.384 290.425 56.808C292.345 56.168 293.753 55.304 294.649 54.216C295.545 53.128 295.993 51.88 295.993 50.472C295.993 48.68 295.289 47.272 293.881 46.248C292.473 45.16 290.617 44.296 288.313 43.656C286.009 42.952 283.449 42.312 280.633 41.736C277.881 41.096 275.097 40.328 272.281 39.432C269.529 38.536 267.001 37.384 264.697 35.976C262.393 34.568 260.505 32.712 259.033 30.408C257.625 28.104 256.921 25.16 256.921 21.576C256.921 17.736 257.945 14.248 259.993 11.112C262.105 7.91199 265.241 5.384 269.401 3.528C273.625 1.608 278.905 0.647999 285.241 0.647999C289.465 0.647999 293.625 1.16 297.721 2.184C301.817 3.144 305.433 4.616 308.569 6.6L303.769 18.408C300.633 16.616 297.497 15.304 294.361 14.472C291.225 13.576 288.153 13.128 285.145 13.128C282.137 13.128 279.673 13.48 277.753 14.184C275.833 14.888 274.457 15.816 273.625 16.968C272.793 18.056 272.377 19.336 272.377 20.808C272.377 22.536 273.081 23.944 274.489 25.032C275.897 26.056 277.753 26.888 280.057 27.528C282.361 28.168 284.889 28.808 287.641 29.448C290.457 30.088 293.241 30.824 295.993 31.656C298.809 32.488 301.369 33.608 303.673 35.016C305.977 36.424 307.833 38.28 309.241 40.584C310.713 42.888 311.449 45.8 311.449 49.32C311.449 53.096 310.393 56.552 308.281 59.688C306.169 62.824 303.001 65.352 298.777 67.272C294.617 69.192 289.337 70.152 282.937 70.152ZM338.3 28.872H370.652V40.968H338.3V28.872ZM339.452 56.52H376.028V69H323.996V1.8H374.78V14.28H339.452V56.52ZM390.322 69V1.8H419.41C425.426 1.8 430.61 2.792 434.962 4.776C439.314 6.696 442.674 9.48 445.042 13.128C447.41 16.776 448.594 21.128 448.594 26.184C448.594 31.176 447.41 35.496 445.042 39.144C442.674 42.728 439.314 45.48 434.962 47.4C430.61 49.32 425.426 50.28 419.41 50.28H398.962L405.874 43.464V69H390.322ZM433.042 69L416.242 44.616H432.85L449.842 69H433.042ZM405.874 45.192L398.962 37.896H418.546C423.346 37.896 426.93 36.872 429.298 34.824C431.666 32.712 432.85 29.832 432.85 26.184C432.85 22.472 431.666 19.592 429.298 17.544C426.93 15.496 423.346 14.472 418.546 14.472H398.962L405.874 7.08V45.192Z" fill="url(#paint0_linear_2682_99348)" fill-opacity="0.15"/>
<defs>
<linearGradient id="paint0_linear_2682_99348" x1="207.498" y1="-34.7637" x2="207.498" y2="116.395" gradientUnits="userSpaceOnUse">
<stop stop-color="white"/>
<stop offset="1" stop-color="white" stop-opacity="0"/>
</linearGradient>
</defs>
</svg>
