<svg width="32" height="32" viewBox="0 0 32 32" fill="none" xmlns="http://www.w3.org/2000/svg">
<g id="Frame" clip-path="url(#clip0_3338_190069)">
<path id="Vector" d="M7.10917 4.36116C7.94123 4.06433 8.84046 4.00977 9.70231 4.20383C10.5642 4.39789 11.3532 4.8326 11.9778 5.45742C12.6023 6.08223 13.0366 6.87149 13.2303 7.73342C13.424 8.59536 13.369 9.49456 13.0718 10.3265L27.5318 24.7865L24.7025 27.6145L10.2425 13.1558C9.41043 13.4527 8.51121 13.5072 7.64936 13.3132C6.78751 13.1191 5.99845 12.6844 5.37391 12.0596C4.74937 11.4348 4.31502 10.6455 4.12134 9.78357C3.92767 8.92163 3.98263 8.02243 4.27983 7.1905L7.26117 10.1732C7.44566 10.3642 7.66635 10.5165 7.91036 10.6214C8.15437 10.7262 8.4168 10.7814 8.68236 10.7837C8.94792 10.786 9.21128 10.7354 9.45707 10.6348C9.70287 10.5342 9.92617 10.3857 10.114 10.198C10.3017 10.0102 10.4502 9.78686 10.5508 9.54107C10.6514 9.29528 10.702 9.03192 10.6997 8.76636C10.6974 8.5008 10.6422 8.23836 10.5374 7.99435C10.4326 7.75034 10.2802 7.52966 10.0892 7.34516L7.10783 4.35983L7.10917 4.36116ZM20.9318 6.87316L25.1745 4.51583L27.0598 6.40116L24.7025 10.6438L22.3452 11.1158L19.5185 13.9438L17.6318 12.0585L20.4598 9.23049L20.9318 6.87316ZM11.5038 17.2438L14.3318 20.0732L7.73183 26.6732C7.36788 27.0337 6.87946 27.2408 6.36727 27.2519C5.85509 27.2629 5.35821 27.0769 4.9791 26.7323C4.59999 26.3878 4.36756 25.9109 4.32974 25.4C4.29192 24.8891 4.45159 24.3831 4.77583 23.9865L4.90517 23.8438L11.5038 17.2438Z" fill="#EDEDED"/>
</g>
<defs>
<clipPath id="clip0_3338_190069">
<rect width="32" height="32" fill="white"/>
</clipPath>
</defs>
</svg>
