<svg width="17" height="16" viewBox="0 0 17 16" fill="none" xmlns="http://www.w3.org/2000/svg">
<path d="M13.7721 6.99743C12.0989 6.99743 10.428 6.99743 8.75488 6.99743C8.75488 7.69095 8.75488 8.38447 8.75488 9.07799C9.72364 9.07799 10.6924 9.07799 11.6612 9.07799C11.5485 9.74333 11.154 10.3502 10.5927 10.7251C10.2416 10.9613 9.83633 11.1152 9.41806 11.1889C8.99761 11.2604 8.56416 11.2691 8.14588 11.1845C7.71893 11.1 7.31366 10.9223 6.95823 10.6731C6.39041 10.2743 5.95913 9.69132 5.7359 9.03681C5.50834 8.3693 5.50618 7.6281 5.7359 6.96059C5.89628 6.49029 6.16068 6.05685 6.50961 5.70358C6.94089 5.26363 7.50004 4.94722 8.10254 4.81935C8.61834 4.70882 9.16232 4.73049 9.66729 4.8822C10.0964 5.01223 10.493 5.24846 10.8159 5.55838C11.1432 5.23329 11.4704 4.90387 11.7977 4.57878C11.9689 4.40324 12.1488 4.23419 12.3157 4.05431C11.8194 3.59485 11.2364 3.22425 10.5992 2.99019C9.45273 2.56758 8.16105 2.55891 7.00808 2.95985C5.70773 3.40414 4.60027 4.37723 3.98694 5.60606C3.77238 6.02867 3.61634 6.48163 3.52315 6.94542C3.28692 8.10273 3.45163 9.33806 3.98694 10.3935C4.3337 11.0827 4.83216 11.6939 5.43466 12.175C6.00464 12.6301 6.66782 12.9639 7.37217 13.1524C8.26075 13.3908 9.20566 13.3843 10.1007 13.1827C10.9091 12.9964 11.6742 12.6106 12.2832 12.0471C12.929 11.4533 13.3884 10.6731 13.6312 9.83436C13.9021 8.91328 13.9389 7.93585 13.7721 6.99743Z" fill="#EDEDED"/>
</svg>
