<svg width="160" height="22" viewBox="0 0 160 22" fill="none" xmlns="http://www.w3.org/2000/svg">
<g clip-path="url(#clip0_702_5228)">
<path d="M51.2837 3.63948H46.432V3.693C46.5885 3.96064 46.6928 4.33534 46.6928 4.71003C46.6928 5.29884 46.3277 6.3694 46.2233 6.85115L43.1454 15.9509C42.7281 17.1285 42.6759 17.4497 41.9455 18.5738V18.6273H45.9625V18.5738C45.7538 18.1991 45.6495 17.8779 45.6495 17.5032C45.6495 16.9144 45.9103 16.1115 46.0668 15.6833L46.2755 15.0409H50.6576C50.6576 15.0409 50.9185 15.8439 51.1271 16.3256C51.2837 16.7538 51.3358 17.1821 51.3358 17.4497C51.3358 17.7709 51.2837 18.0385 51.1271 18.5738V18.6273H56.97V18.5738C56.344 17.7709 56.031 16.8609 55.5093 15.3621L51.2837 3.63948ZM47.058 12.5786L48.4144 8.40347L49.8229 12.5786H47.058ZM39.4415 15.3086C39.4415 16.6468 39.5458 17.8779 39.9631 18.5738V18.6273H34.2246V18.5738C34.7985 17.5568 34.6941 16.5397 34.6941 15.3621V12.8998V12.311L33.9116 10.7587L31.1467 5.45943C30.7815 4.71003 30.4685 4.22828 29.8947 3.693V3.63948H34.9028V3.693L37.8764 9.90225C37.8764 9.90225 38.5546 8.51052 38.7111 8.18935C39.0241 7.54702 39.3893 6.79763 39.5458 6.47646C39.8066 5.99471 40.0675 5.29884 40.0675 4.76356C40.0675 4.22828 39.911 3.96064 39.7545 3.74653V3.63948H43.7193V3.693L39.7023 11.8293L39.3893 12.4181L39.4415 15.3086ZM68.2905 18.6273H58.0134V18.5738C58.4307 17.6103 58.4829 16.8074 58.4829 15.3621V6.90468C58.4829 5.13826 58.3264 4.44239 58.0134 3.74653V3.693H63.5954V3.74653C63.2302 4.76356 63.178 5.35237 63.178 6.95821V15.5762C63.804 15.6833 64.5344 15.7903 65.3169 15.7903C66.9863 15.7903 67.8732 15.6297 68.4992 15.3621H68.6557L68.2905 18.6273ZM23.1128 3.26478C18.5742 3.26478 15.4441 6.15529 15.4441 10.2234C15.4441 16.165 21.5999 17.0215 23.7388 15.0945L23.3736 14.3451C21.4956 14.7198 19.8262 13.2745 19.8262 10.0093C19.8262 7.38644 21.1826 5.72707 23.0606 5.72707C25.2517 5.72707 26.6081 7.97524 26.6081 11.2404C26.6081 14.9339 24.5213 17.7173 20.6609 17.7173C16.2266 17.7173 12.8878 14.131 10.8011 10.5446C13.0965 9.63461 14.4529 7.86819 14.4529 5.45943C14.4529 2.3548 12.1575 0.160156 8.03617 0.160156H0.210938V0.213684C0.523947 0.909548 0.680452 2.19422 0.680452 3.96064V15.3621C0.680452 16.8074 0.628284 17.6103 0.210938 18.5738V18.6273H6.00161V18.5738C5.63644 17.6638 5.5321 16.4327 5.5321 15.3621C5.5321 13.5957 5.5321 12.204 5.5321 12.204C5.58427 12.204 6.15812 12.204 6.26245 12.204C10.2794 18.2526 14.8702 20.7684 19.774 20.7684C26.8689 20.7684 31.0424 16.165 31.0424 11.0799C31.0424 6.7441 27.8601 3.26478 23.1128 3.26478ZM5.58427 9.79519V2.99714H7.20148C9.07954 2.99714 9.86206 4.12123 9.86206 5.94118C9.86206 8.13583 8.61003 9.84872 6.57546 9.84872C6.26245 9.79519 5.6886 9.79519 5.58427 9.79519ZM102.878 3.693C102.565 4.38887 102.409 5.13826 102.409 6.85115V16.165C102.461 17.1285 102.513 17.7709 102.878 18.5203V18.5738H102.409H101.47H99.4871C98.7568 18.2526 97.9742 17.3426 96.9309 16.2186C96.0962 15.3086 92.1836 10.6516 92.1836 10.6516H92.1314C92.1314 10.6516 92.1314 15.0409 92.1314 15.0945C90.9837 15.2015 89.6273 15.5227 88.584 15.7903V14.8268V6.79763C88.584 5.0312 88.4275 4.33534 88.1144 3.63948V3.58595H91.0359H92.2357L98.8611 11.8293V6.90468C98.8611 5.13826 98.7046 4.44239 98.3916 3.74653V3.693H101.47H102.878ZM96.044 18.6273C90.2533 18.6808 88.897 21.8925 81.5412 21.8925C77.9938 21.8925 74.8637 20.929 74.8637 20.929V20.8755C75.2811 19.912 75.3332 19.1626 75.3332 17.7173V3.96064C75.3332 2.19422 75.1767 0.909548 74.8637 0.213684V0.160156H86.7059L87.0711 3.53242C86.1842 3.15772 85.0887 3.05067 83.5236 3.05067H80.3935V8.88522H81.9064C84.254 8.88522 85.6104 8.72463 85.9755 8.61758H86.0799V12.1504H86.0277C85.5582 11.9898 83.941 11.8293 82.0108 11.8293H80.4457V17.6638C80.4457 17.6638 82.2716 18.092 83.941 18.092C88.3231 18.092 90.2012 16.4862 94.5311 16.4862C94.6876 16.4862 94.792 16.4862 94.8963 16.4862C95.731 17.5032 96.4614 18.3061 96.7744 18.6273C96.4614 18.6273 96.4614 18.6273 96.044 18.6273ZM121.241 6.90468V15.4156C121.241 16.8609 121.293 17.6638 121.711 18.6273V18.6808H116.077V18.6273C116.494 17.6638 116.546 16.8609 116.546 15.4156V6.90468C116.546 5.13826 116.39 4.44239 116.077 3.74653V3.693H121.711V3.74653C121.398 4.44239 121.241 5.13826 121.241 6.90468ZM109.921 10.1699H110.338C112.425 10.1699 113.103 10.0093 113.416 9.95578H113.52V13.0604H113.416C112.999 12.8998 112.112 12.7392 110.39 12.7392H109.921V14.5592V15.3086C109.921 16.8074 109.973 17.8244 110.442 18.5738V18.6273H104.756V18.5738C105.173 17.6103 105.226 16.8074 105.226 15.3621V6.90468C105.226 5.13826 105.069 4.44239 104.756 3.74653V3.693H114.459L114.825 6.7441H114.772C114.094 6.42293 113.207 6.26235 111.799 6.26235H109.921V8.72463V10.1699ZM134.023 15.5227L133.657 18.6273H126.928H123.641V18.5738C124.058 17.6103 124.111 16.8074 124.111 15.3621V6.90468C124.111 5.13826 123.954 4.44239 123.641 3.74653V3.693H133.344L133.709 6.7441H133.657C132.979 6.42293 132.092 6.26235 130.684 6.26235H128.806V9.68814H129.171C131.258 9.68814 131.936 9.52755 132.249 9.47403H132.353V12.5786H132.249C131.831 12.4181 130.945 12.2575 129.223 12.2575H128.754V15.7903C129.432 15.8974 129.901 15.9509 130.684 15.9509C132.457 15.9509 133.083 15.8439 133.814 15.5227H134.023ZM159.846 11.6151C159.846 16.7538 156.194 20.7684 150.038 20.7684C145.291 20.7684 143.778 18.6273 137.883 18.6273H135.431V18.5738C135.848 17.6103 135.901 16.8074 135.901 15.3621V6.85115C135.901 5.08473 135.744 4.38887 135.431 3.693V3.63948H141.065V3.693C140.752 4.38887 140.596 5.51295 140.596 6.90468V16.0044C144.091 16.0044 145.656 17.075 148.734 17.075C153.012 17.075 155.098 14.6662 155.098 11.2404C155.098 8.29641 153.638 6.10176 151.082 6.10176C150.612 6.10176 149.934 6.10176 149.412 6.10176V15.3621C147.847 15.4156 146.021 15.2015 144.717 14.7198V6.85115C144.717 5.08473 144.56 4.38887 144.247 3.693V3.63948H150.873C156.351 3.63948 159.846 7.1188 159.846 11.6151Z" fill="white"/>
</g>
<defs>
<clipPath id="clip0_702_5228">
<rect width="160" height="22" fill="white"/>
</clipPath>
</defs>
</svg>
