<svg width="48" height="48" viewBox="0 0 48 48" fill="none" xmlns="http://www.w3.org/2000/svg">
<g clip-path="url(#clip0_2640_60479)">
<path d="M15.1131 12.3612C15.9451 12.0643 16.8444 12.0098 17.7062 12.2038C18.5681 12.3979 19.3571 12.8326 19.9817 13.4574C20.6062 14.0822 21.0406 14.8715 21.2342 15.7334C21.4279 16.5954 21.3729 17.4946 21.0757 18.3265L35.5357 32.7865L32.7064 35.6145L18.2464 21.1558C17.4143 21.4527 16.5151 21.5072 15.6533 21.3132C14.7914 21.1191 14.0024 20.6844 13.3778 20.0596C12.7533 19.4348 12.3189 18.6455 12.1252 17.7836C11.9316 16.9216 11.9865 16.0224 12.2837 15.1905L15.2651 18.1732C15.4496 18.3642 15.6703 18.5165 15.9143 18.6214C16.1583 18.7262 16.4207 18.7814 16.6863 18.7837C16.9518 18.786 17.2152 18.7354 17.461 18.6348C17.7068 18.5342 17.9301 18.3857 18.1179 18.198C18.3056 18.0102 18.4542 17.7869 18.5547 17.5411C18.6553 17.2953 18.7059 17.0319 18.7036 16.7664C18.7013 16.5008 18.6461 16.2384 18.5413 15.9944C18.4365 15.7503 18.2841 15.5297 18.0931 15.3452L15.1117 12.3598L15.1131 12.3612ZM28.9357 14.8732L33.1784 12.5158L35.0637 14.4012L32.7064 18.6438L30.3491 19.1158L27.5224 21.9438L25.6357 20.0585L28.4637 17.2305L28.9357 14.8732ZM19.5077 25.2438L22.3357 28.0732L15.7357 34.6732C15.3718 35.0337 14.8834 35.2408 14.3712 35.2519C13.859 35.2629 13.3621 35.0769 12.983 34.7323C12.6039 34.3878 12.3715 33.9109 12.3336 33.4C12.2958 32.8891 12.4555 32.3831 12.7797 31.9865L12.9091 31.8438L19.5077 25.2438Z" fill="#EDEDED"/>
</g>
<defs>
<clipPath id="clip0_2640_60479">
<rect width="32" height="32" fill="white" transform="translate(8 8)"/>
</clipPath>
</defs>
</svg>
