<svg width="32" height="32" viewBox="0 0 32 32" fill="none" xmlns="http://www.w3.org/2000/svg">
<g filter="url(#filter0_b_3338_211949)">
<rect width="32" height="32" rx="16" fill="#373737"/>
<g clip-path="url(#clip0_3338_211949)">
<path fill-rule="evenodd" clip-rule="evenodd" d="M22.7467 21.6669C22.2824 21.6669 21.8372 21.4825 21.509 21.1542C21.1808 20.826 20.9964 20.3808 20.9964 19.9166C20.9964 19.4524 21.1808 19.0072 21.509 18.6789C21.8372 18.3507 22.2824 18.1663 22.7467 18.1663C23.2109 18.1663 23.6561 18.3507 23.9843 18.6789C24.3125 19.0072 24.497 19.4524 24.497 19.9166C24.497 20.3808 24.3125 20.826 23.9843 21.1542C23.6561 21.4825 23.2109 21.6669 22.7467 21.6669ZM22.7467 23.1671C21.8846 23.1671 21.0578 22.8247 20.4482 22.2151C19.8386 21.6055 19.4961 20.7787 19.4961 19.9166C19.4961 19.0545 19.8386 18.2277 20.4482 17.6181C21.0578 17.0085 21.8846 16.666 22.7467 16.666C23.6088 16.666 24.4355 17.0085 25.0451 17.6181C25.6547 18.2277 25.9972 19.0545 25.9972 19.9166C25.9972 20.7787 25.6547 21.6055 25.0451 22.2151C24.4355 22.8247 23.6088 23.1671 22.7467 23.1671Z" fill="#EDEDED"/>
<path fill-rule="evenodd" clip-rule="evenodd" d="M18.7102 9.46507C18.6711 9.37611 18.607 9.30046 18.5257 9.24735C18.4443 9.19424 18.3493 9.16598 18.2521 9.16602H15.5016V10.1662H17.9255L22.2948 20.1189C22.3481 20.2404 22.4475 20.3357 22.5711 20.3839C22.6947 20.4321 22.8324 20.4293 22.9539 20.3759C23.0754 20.3226 23.1707 20.2232 23.2189 20.0996C23.2671 19.976 23.2643 19.8383 23.211 19.7168L18.7102 9.46507ZM9.25056 21.6682C8.78635 21.6682 8.34115 21.4838 8.01291 21.1555C7.68466 20.8273 7.50026 20.3821 7.50026 19.9179C7.50026 19.4537 7.68466 19.0085 8.01291 18.6802C8.34115 18.352 8.78635 18.1676 9.25056 18.1676C9.71477 18.1676 10.16 18.352 10.4882 18.6802C10.8165 19.0085 11.0009 19.4537 11.0009 19.9179C11.0009 20.3821 10.8165 20.8273 10.4882 21.1555C10.16 21.4838 9.71477 21.6682 9.25056 21.6682ZM9.25056 23.1684C8.38846 23.1684 7.56166 22.826 6.95207 22.2164C6.34247 21.6068 6 20.78 6 19.9179C6 19.0558 6.34247 18.229 6.95207 17.6194C7.56166 17.0098 8.38846 16.6673 9.25056 16.6673C10.1127 16.6673 10.9395 17.0098 11.5491 17.6194C12.1586 18.229 12.5011 19.0558 12.5011 19.9179C12.5011 20.78 12.1586 21.6068 11.5491 22.2164C10.9395 22.826 10.1127 23.1684 9.25056 23.1684Z" fill="#EDEDED"/>
<path fill-rule="evenodd" clip-rule="evenodd" d="M20.821 15.5299C20.7181 15.4463 20.5862 15.407 20.4544 15.4206C20.3226 15.4342 20.2015 15.4996 20.1179 15.6024L17.0173 19.4185H9.25399C9.12136 19.4185 8.99416 19.4712 8.90038 19.565C8.80659 19.6588 8.75391 19.786 8.75391 19.9186C8.75391 20.0512 8.80659 20.1784 8.90038 20.2722C8.99416 20.366 9.12136 20.4187 9.25399 20.4187H17.2554C17.3297 20.4187 17.4032 20.402 17.4703 20.37C17.5374 20.338 17.5966 20.2914 17.6434 20.2337L20.894 16.233C20.9775 16.1301 21.0168 15.9983 21.0032 15.8664C20.9896 15.7346 20.9243 15.6135 20.8215 15.5299H20.821Z" fill="#EDEDED"/>
<path d="M17.9941 16.6659H12.7432C12.5442 16.6659 12.3534 16.745 12.2128 16.8856C12.0721 17.0263 11.993 17.2171 11.993 17.416C11.993 17.615 12.0721 17.8058 12.2128 17.9465C12.3534 18.0871 12.5442 18.1662 12.7432 18.1662H16.4938C16.8917 18.1662 17.2733 18.0081 17.5547 17.7268C17.836 17.4454 17.9941 17.0638 17.9941 16.6659ZM17.9651 12.6652H15.8362C14.2649 12.6652 13.1122 14.1415 13.4933 15.6657H18.6852C18.7704 15.6657 18.8542 15.6439 18.9286 15.6024C19.003 15.5608 19.0656 15.501 19.1104 15.4285C19.1551 15.356 19.1807 15.2733 19.1845 15.1882C19.1883 15.103 19.1704 15.0183 19.1323 14.9421L18.0071 12.6912C18.0032 12.6834 17.9972 12.6769 17.9898 12.6723C17.9823 12.6677 17.9738 12.6652 17.9651 12.6652ZM6.99219 13.6654C6.99219 13.5328 7.04488 13.4056 7.13866 13.3118C7.23244 13.218 7.35964 13.1653 7.49227 13.1653H10.0412C10.4161 13.1654 10.7862 13.2499 11.124 13.4124C11.4619 13.5748 11.7589 13.8112 11.993 14.104L12.5931 14.8531C12.6521 14.9267 12.689 15.0154 12.6996 15.1091C12.7103 15.2028 12.6943 15.2976 12.6534 15.3825C12.6125 15.4675 12.5484 15.5391 12.4686 15.5892C12.3887 15.6394 12.2964 15.6659 12.2021 15.6657H7.49227C7.35964 15.6657 7.23244 15.6131 7.13866 15.5193C7.04488 15.4255 6.99219 15.2983 6.99219 15.1657V13.6654ZM20.9946 12.4152L24.4952 10.2773V14.1655L21.4612 13.6654L20.9946 12.4152Z" fill="#EDEDED"/>
<path fill-rule="evenodd" clip-rule="evenodd" d="M15.3166 20.1603L14.0664 17.9099L14.9406 17.4238L16.1908 19.6742L15.3166 20.1603Z" fill="#EDEDED"/>
</g>
</g>
<defs>
<filter id="filter0_b_3338_211949" x="-3" y="-3" width="38" height="38" filterUnits="userSpaceOnUse" color-interpolation-filters="sRGB">
<feFlood flood-opacity="0" result="BackgroundImageFix"/>
<feGaussianBlur in="BackgroundImageFix" stdDeviation="1.5"/>
<feComposite in2="SourceAlpha" operator="in" result="effect1_backgroundBlur_3338_211949"/>
<feBlend mode="normal" in="SourceGraphic" in2="effect1_backgroundBlur_3338_211949" result="shape"/>
</filter>
<clipPath id="clip0_3338_211949">
<rect width="22" height="16" fill="white" transform="translate(5 8)"/>
</clipPath>
</defs>
</svg>
