<svg width="20" height="20" viewBox="0 0 20 20" fill="none" xmlns="http://www.w3.org/2000/svg">
<g id="my_location" clip-path="url(#clip0_5495_27836)">
<path id="Vector" d="M10.0026 6.66658C8.16094 6.66658 6.66927 8.15825 6.66927 9.99992C6.66927 11.8416 8.16094 13.3333 10.0026 13.3333C11.8443 13.3333 13.3359 11.8416 13.3359 9.99992C13.3359 8.15825 11.8443 6.66658 10.0026 6.66658ZM17.4526 9.16658C17.0693 5.69158 14.3109 2.93325 10.8359 2.54992V0.833252H9.16927V2.54992C5.69427 2.93325 2.93594 5.69158 2.5526 9.16658H0.835938V10.8333H2.5526C2.93594 14.3083 5.69427 17.0666 9.16927 17.4499V19.1666H10.8359V17.4499C14.3109 17.0666 17.0693 14.3083 17.4526 10.8333H19.1693V9.16658H17.4526ZM10.0026 15.8333C6.7776 15.8333 4.16927 13.2249 4.16927 9.99992C4.16927 6.77492 6.7776 4.16658 10.0026 4.16658C13.2276 4.16658 15.8359 6.77492 15.8359 9.99992C15.8359 13.2249 13.2276 15.8333 10.0026 15.8333Z" fill="#EDEDED"/>
</g>
<defs>
<clipPath id="clip0_5495_27836">
<rect width="20" height="20" fill="white"/>
</clipPath>
</defs>
</svg>
