<svg width="17" height="16" viewBox="0 0 17 16" fill="none" xmlns="http://www.w3.org/2000/svg">
<path d="M7.15797 4.73181C7.15797 5.00061 7.15797 6.2004 7.15797 6.2004H6.08203V7.9962H7.15797V13.3327H9.36817V7.99635H10.8513C10.8513 7.99635 10.9902 7.13528 11.0576 6.19378C10.8645 6.19378 9.37653 6.19378 9.37653 6.19378C9.37653 6.19378 9.37653 5.14904 9.37653 4.96592C9.37653 4.7824 9.61751 4.53554 9.85568 4.53554C10.0934 4.53554 10.5952 4.53554 11.0599 4.53554C11.0599 4.29104 11.0599 3.44624 11.0599 2.66602C10.4395 2.66602 9.73369 2.66602 9.42258 2.66602C7.10333 2.66589 7.15797 4.46348 7.15797 4.73181Z" fill="#EDEDED"/>
</svg>
