<svg width="48" height="48" viewBox="0 0 48 48" fill="none" xmlns="http://www.w3.org/2000/svg">
<g clip-path="url(#clip0_2640_60489)">
<path d="M26.8286 21.9732C26.5786 21.7232 26.2395 21.5828 25.8859 21.5828C25.5324 21.5828 25.1933 21.7232 24.9433 21.9732L24.0006 22.9145C23.7546 23.1692 23.4604 23.3723 23.135 23.5121C22.8097 23.6519 22.4597 23.7254 22.1057 23.7285C21.7516 23.7316 21.4004 23.6641 21.0727 23.53C20.745 23.3959 20.4473 23.1979 20.1969 22.9475C19.9465 22.6972 19.7485 22.3994 19.6144 22.0717C19.4803 21.744 19.4129 21.3928 19.4159 21.0388C19.419 20.6847 19.4926 20.3348 19.6323 20.0094C19.7721 19.6841 19.9752 19.3898 20.2299 19.1438L27.7366 11.6345C29.5138 11.2303 31.3733 11.3966 33.0505 12.1099C34.7278 12.8232 36.1374 14.0472 37.0791 15.6077C38.0208 17.1682 38.4465 18.9859 38.2957 20.8023C38.1449 22.6186 37.4253 24.3413 36.2393 25.7252L33.4286 28.5718L26.8286 21.9732ZM12.2153 13.9572C13.5949 12.5777 15.3996 11.7038 17.3373 11.4768C19.2751 11.2499 21.2328 11.6831 22.8939 12.7065L18.3433 17.2585C17.3577 18.2421 16.7958 19.5722 16.7778 20.9646C16.7599 22.3569 17.2871 23.7011 18.247 24.7099C19.2068 25.7186 20.5231 26.312 21.9147 26.3632C23.3062 26.4144 24.6626 25.9193 25.6939 24.9838L25.8859 24.8012L31.5433 30.4572L25.8859 36.1145C25.3859 36.6144 24.7077 36.8953 24.0006 36.8953C23.2935 36.8953 22.6153 36.6144 22.1153 36.1145L12.2139 26.2132C10.5888 24.5879 9.67578 22.3836 9.67578 20.0852C9.67578 17.7867 10.5901 15.5824 12.2153 13.9572Z" fill="#EDEDED"/>
</g>
<defs>
<clipPath id="clip0_2640_60489">
<rect width="32" height="32" fill="white" transform="translate(8 8)"/>
</clipPath>
</defs>
</svg>
