<svg width="14" height="18" viewBox="0 0 14 18" fill="none" xmlns="http://www.w3.org/2000/svg">
<path id="Vector" d="M7.00065 8.99984C6.08398 8.99984 5.33398 8.24984 5.33398 7.33317C5.33398 6.4165 6.08398 5.6665 7.00065 5.6665C7.91732 5.6665 8.66732 6.4165 8.66732 7.33317C8.66732 8.24984 7.91732 8.99984 7.00065 8.99984ZM12.0007 7.49984C12.0007 4.47484 9.79232 2.33317 7.00065 2.33317C4.20898 2.33317 2.00065 4.47484 2.00065 7.49984C2.00065 9.44984 3.62565 12.0332 7.00065 15.1165C10.3757 12.0332 12.0007 9.44984 12.0007 7.49984ZM7.00065 0.666504C10.5007 0.666504 13.6673 3.34984 13.6673 7.49984C13.6673 10.2665 11.4423 13.5415 7.00065 17.3332C2.55898 13.5415 0.333984 10.2665 0.333984 7.49984C0.333984 3.34984 3.50065 0.666504 7.00065 0.666504Z" fill="#EDEDED"/>
</svg>
